<svg preserveAspectRatio="none" width="100%" height="100%" overflow="visible" style="display: block;" viewBox="0 0 24 24" fill="none" xmlns="http://www.w3.org/2000/svg">
<g id="Linkedin">
<path id="Vector" d="M17.5 8.999C16.6047 8.99862 15.7233 9.22006 14.9346 9.64353C14.8626 9.45395 14.7346 9.29077 14.5677 9.17564C14.4008 9.06052 14.2028 8.99891 14 8.999H10C9.86866 8.99892 9.73859 9.02474 9.61723 9.07497C9.49587 9.1252 9.3856 9.19885 9.29273 9.29173C9.19985 9.3846 9.1262 9.49487 9.07597 9.61623C9.02574 9.73759 8.99993 9.86766 9 9.999V21.999C8.99992 22.1303 9.02574 22.2604 9.07596 22.3818C9.12619 22.5031 9.19985 22.6134 9.29272 22.7063C9.3856 22.7991 9.49587 22.8728 9.61723 22.923C9.73859 22.9733 9.86866 22.9991 10 22.999H14C14.1313 22.9991 14.2614 22.9733 14.3828 22.923C14.5041 22.8728 14.6144 22.7991 14.7073 22.7063C14.8002 22.6134 14.8738 22.5031 14.924 22.3818C14.9743 22.2604 15.0001 22.1303 15 21.999V16.499C15 16.2338 15.1054 15.9794 15.2929 15.7919C15.4804 15.6044 15.7348 15.499 16 15.499C16.2652 15.499 16.5196 15.6044 16.7071 15.7919C16.8946 15.9794 17 16.2338 17 16.499V21.999C16.9999 22.1303 17.0257 22.2604 17.076 22.3818C17.1262 22.5031 17.1998 22.6134 17.2927 22.7063C17.3856 22.7991 17.4959 22.8728 17.6172 22.923C17.7386 22.9733 17.8687 22.9991 18 22.999H22C22.1313 22.9991 22.2614 22.9733 22.3828 22.923C22.5041 22.8728 22.6144 22.7991 22.7073 22.7063C22.8002 22.6134 22.8738 22.5031 22.924 22.3818C22.9743 22.2604 23.0001 22.1303 23 21.999V14.499C22.9982 13.0409 22.4181 11.643 21.3871 10.6119C20.356 9.58086 18.9581 9.00081 17.5 8.999V8.999ZM21 20.999H19V16.499C19 15.7034 18.6839 14.9403 18.1213 14.3777C17.5587 13.8151 16.7956 13.499 16 13.499C15.2044 13.499 14.4413 13.8151 13.8787 14.3777C13.3161 14.9403 13 15.7034 13 16.499V20.999H11V10.999H13V11.7021C13.0001 11.9093 13.0646 12.1114 13.1844 12.2804C13.3043 12.4494 13.4737 12.577 13.6692 12.6456C13.8647 12.7142 14.0767 12.7204 14.2759 12.6634C14.4751 12.6063 14.6517 12.4888 14.7812 12.3271C15.23 11.7572 15.8456 11.3416 16.542 11.1384C17.2384 10.9352 17.9809 10.9545 18.6657 11.1937C19.3506 11.4329 19.9437 11.88 20.3622 12.4726C20.7806 13.0651 21.0036 13.7736 21 14.499V20.999ZM7 8.999H3C2.86866 8.99892 2.73859 9.02474 2.61723 9.07497C2.49587 9.1252 2.3856 9.19885 2.29273 9.29173C2.19985 9.3846 2.1262 9.49487 2.07597 9.61623C2.02574 9.73759 1.99993 9.86766 2 9.999V21.999C1.99992 22.1303 2.02574 22.2604 2.07597 22.3818C2.12619 22.5031 2.19985 22.6134 2.29272 22.7063C2.3856 22.7991 2.49587 22.8728 2.61723 22.923C2.73859 22.9733 2.86866 22.9991 3 22.999H7C7.13134 22.9991 7.26141 22.9733 7.38277 22.923C7.50413 22.8728 7.6144 22.7991 7.70728 22.7063C7.80015 22.6134 7.87381 22.5031 7.92403 22.3818C7.97426 22.2604 8.00008 22.1303 8 21.999V9.999C8.00007 9.86766 7.97426 9.73759 7.92403 9.61623C7.8738 9.49487 7.80015 9.3846 7.70727 9.29173C7.6144 9.19885 7.50413 9.1252 7.38277 9.07497C7.26141 9.02474 7.13134 8.99892 7 8.999V8.999ZM6 20.999H4V10.999H6V20.999ZM5.01465 1.542C4.57701 1.5158 4.13862 1.5789 3.72613 1.72744C3.31364 1.87599 2.93567 2.10689 2.61522 2.40609C2.29476 2.7053 2.03852 3.06656 1.86206 3.4679C1.6856 3.86924 1.59262 4.30229 1.58878 4.74069C1.58493 5.1791 1.6703 5.6137 1.83968 6.01808C2.00907 6.42246 2.25894 6.78816 2.5741 7.09294C2.88925 7.39772 3.26311 7.63521 3.67293 7.79098C4.08275 7.94674 4.51997 8.01751 4.958 7.999H4.98632C5.42512 8.02506 5.86462 7.96138 6.27798 7.81185C6.69133 7.66232 7.06985 7.43007 7.39042 7.12931C7.71099 6.82854 7.96686 6.46557 8.14241 6.06258C8.31795 5.65958 8.40949 5.22503 8.41142 4.78546C8.41334 4.34589 8.32563 3.91055 8.15362 3.50603C7.98161 3.10151 7.72893 2.73631 7.41102 2.43275C7.0931 2.12918 6.71663 1.89362 6.3046 1.74047C5.89258 1.58732 5.45365 1.51979 5.01464 1.542H5.01465ZM4.98633 5.999H4.958C4.78507 6.02 4.60964 6.00378 4.44349 5.95143C4.27734 5.89908 4.1243 5.81181 3.99464 5.69546C3.86498 5.57912 3.7617 5.4364 3.69171 5.27688C3.62173 5.11735 3.58666 4.9447 3.58887 4.77051C3.58887 4.02441 4.14844 3.54199 5.01465 3.54199C5.18935 3.5187 5.36701 3.53312 5.53567 3.58427C5.70432 3.63543 5.86006 3.72213 5.99239 3.83854C6.12471 3.95495 6.23056 4.09837 6.30279 4.25913C6.37502 4.41989 6.41196 4.59427 6.41113 4.77051C6.41113 5.5166 5.85156 5.999 4.98633 5.999Z" fill="var(--fill-0, #363E45)" fill-opacity="0.64"/>
</g>
</svg>
