<svg width="40" height="40" viewBox="0 0 40 40" fill="none" xmlns="http://www.w3.org/2000/svg">
<path d="M24.1663 10.8333C25.3949 11.073 26.6145 11.6149 27.4997 12.5C28.3848 13.3851 28.9266 14.6047 29.1663 15.8333M24.9997 5C27.5522 5.28357 29.8492 6.51845 31.6663 8.33333C33.4835 10.1482 34.7129 12.4478 34.9997 15M34.9987 27.4611V31.9774C35.0058 33.7038 33.4534 35.1455 31.7104 34.9882C16.6664 35 4.99976 23.225 5.01153 8.28198C4.85455 6.54825 6.28905 5.00177 8.01327 5.00015H12.5385C13.2705 4.99296 13.9802 5.25167 14.5353 5.72807C16.1133 7.08249 17.1283 11.6796 16.7378 13.5071C16.4329 14.9339 14.9946 15.9322 14.0167 16.9081C16.1641 20.677 19.2908 23.7976 23.0672 25.9406C24.0451 24.9647 25.0453 23.5293 26.4749 23.225C28.3089 22.8346 32.9356 23.8511 34.2846 25.4401C34.7629 26.0035 35.0171 26.7228 34.9987 27.4611Z" stroke="#363E45" stroke-width="2.5" stroke-linecap="round" stroke-linejoin="round"/>
</svg>
