<svg preserveAspectRatio="none" width="100%" height="100%" overflow="visible" style="display: block;" viewBox="0 0 24 24" fill="none" xmlns="http://www.w3.org/2000/svg">
<g id="Twitter">
<path id="Vector" d="M22.9912 3.9502C22.9913 3.77357 22.9446 3.60006 22.8559 3.44735C22.7671 3.29463 22.6395 3.16817 22.4859 3.08083C22.3324 2.9935 22.1585 2.94841 21.9819 2.95016C21.8052 2.95192 21.6322 3.00045 21.4805 3.09082C20.8952 3.43921 20.265 3.70601 19.6075 3.88382C18.6684 3.07805 17.4708 2.63712 16.2335 2.64163C14.876 2.64319 13.5724 3.17222 12.5977 4.11701C11.623 5.0618 11.0537 6.34839 11.0098 7.70511C8.33382 7.27837 5.90847 5.88164 4.19629 3.78125C4.09313 3.65609 3.96138 3.55756 3.81215 3.494C3.66293 3.43043 3.5006 3.40368 3.33887 3.416C3.17723 3.42931 3.02127 3.48179 2.88446 3.56891C2.74766 3.65603 2.63414 3.77516 2.55371 3.916C2.14124 4.63581 1.90434 5.44276 1.86226 6.27131C1.82018 7.09986 1.9741 7.92665 2.31152 8.68455L2.30957 8.6865C2.15792 8.77991 2.03276 8.91066 1.94608 9.06625C1.85939 9.22184 1.81407 9.39707 1.81445 9.57518C1.81261 9.72211 1.82143 9.86898 1.84082 10.0146C1.94296 11.2729 2.5006 12.4507 3.40918 13.3271C3.34754 13.4446 3.30992 13.5731 3.29852 13.7052C3.28712 13.8373 3.30216 13.9704 3.34277 14.0967C3.73888 15.3308 4.58127 16.3727 5.70508 17.0185C4.56332 17.46 3.3305 17.614 2.11523 17.4668C1.8903 17.4386 1.66246 17.4876 1.46908 17.6059C1.2757 17.7242 1.12826 17.9047 1.05095 18.1178C0.973634 18.3309 0.971041 18.5639 1.04359 18.7787C1.11614 18.9935 1.25953 19.1772 1.45023 19.2998C3.54032 20.6459 5.97391 21.3617 8.46 21.3613C11.2793 21.393 14.03 20.4921 16.2842 18.7988C18.5385 17.1054 20.17 14.7145 20.9248 11.998C21.2779 10.8146 21.4581 9.58647 21.46 8.35156C21.46 8.28613 21.46 8.21875 21.459 8.15137C21.9811 7.5883 22.3856 6.92667 22.6487 6.20527C22.9118 5.48386 23.0282 4.71719 22.9912 3.9502V3.9502ZM19.6846 7.16211C19.5194 7.35745 19.4358 7.60891 19.4512 7.86426C19.4609 8.02926 19.46 8.19526 19.46 8.35156C19.4579 9.3951 19.305 10.4329 19.0059 11.4326C18.3894 13.744 17.015 15.7817 15.1029 17.2192C13.1909 18.6568 10.8517 19.4111 8.46 19.3613C7.60088 19.3616 6.74472 19.2606 5.90922 19.0606C6.97463 18.7172 7.97081 18.1879 8.8516 17.4971C9.01383 17.3693 9.13255 17.1945 9.19149 16.9967C9.25042 16.7988 9.24668 16.5875 9.18077 16.3918C9.11487 16.1961 8.99003 16.0257 8.82338 15.9038C8.65673 15.7818 8.45645 15.7145 8.25 15.7109C7.41883 15.698 6.62513 15.363 6.03613 14.7764C6.18555 14.7481 6.33399 14.7129 6.48145 14.6709C6.69746 14.6094 6.88649 14.477 7.01811 14.295C7.14973 14.1131 7.21627 13.8921 7.20702 13.6677C7.19778 13.4433 7.11328 13.2285 6.96713 13.058C6.82099 12.8874 6.62171 12.771 6.40137 12.7275C5.91891 12.6323 5.46492 12.427 5.07468 12.1277C4.68445 11.8284 4.3685 11.4432 4.15137 11.002C4.3321 11.0266 4.51398 11.0419 4.69629 11.0478C4.91287 11.0511 5.12488 10.9854 5.30167 10.8603C5.47845 10.7351 5.61084 10.5569 5.67969 10.3516C5.74567 10.1443 5.74227 9.92122 5.67002 9.71609C5.59776 9.51096 5.46059 9.33498 5.2793 9.21484C4.83945 8.92181 4.47914 8.52426 4.23066 8.0578C3.98217 7.59133 3.85326 7.07052 3.85547 6.542C3.85547 6.4756 3.85742 6.40919 3.86133 6.34376C6.10259 8.43401 9.00965 9.66621 12.0703 9.82325C12.2248 9.82934 12.3787 9.80024 12.5203 9.73815C12.6619 9.67606 12.7875 9.58261 12.8877 9.46485C12.9869 9.34595 13.0571 9.20566 13.0929 9.05501C13.1286 8.90436 13.1289 8.74747 13.0937 8.59669C13.0365 8.35805 13.0074 8.11356 13.0068 7.86817C13.0077 7.01271 13.348 6.19254 13.9529 5.58764C14.5578 4.98273 15.3779 4.6425 16.2334 4.6416C16.6735 4.64042 17.1091 4.7305 17.5127 4.90615C17.9163 5.08179 18.279 5.3392 18.5781 5.66211C18.6935 5.78619 18.8386 5.8787 18.9998 5.93085C19.161 5.98299 19.3328 5.99302 19.499 5.96C19.9098 5.88006 20.3147 5.77239 20.7109 5.63774C20.4406 6.19071 20.0953 6.70369 19.6846 7.16211V7.16211Z" fill="var(--fill-0, #363E45)" fill-opacity="0.64"/>
</g>
</svg>
